<svg width="243" height="64" viewBox="0 0 243 64" fill="none" xmlns="http://www.w3.org/2000/svg">
<circle cx="32" cy="32" r="32" fill="#FF4501"/>
<path d="M16.9997 41.9998C17.4417 41.9998 17.8656 41.8242 18.1782 41.5117C18.4907 41.1991 18.6663 40.7752 18.6663 40.3332C18.6663 39.8911 18.4907 39.4672 18.1782 39.1547C17.8656 38.8421 17.4417 38.6665 16.9997 38.6665C16.5576 38.6665 16.1337 38.8421 15.8212 39.1547C15.5086 39.4672 15.333 39.8911 15.333 40.3332C15.333 40.7752 15.5086 41.1991 15.8212 41.5117C16.1337 41.8242 16.5576 41.9998 16.9997 41.9998Z" fill="black" stroke="white" stroke-width="3" stroke-linecap="round" stroke-linejoin="round"/>
<path d="M47 24.2549V39.7449C47.0001 39.9235 46.9524 40.0988 46.8618 40.2527C46.7712 40.4065 46.6411 40.5333 46.485 40.6199L32.485 48.3966C32.3366 48.4789 32.1697 48.5221 32 48.5221C31.8303 48.5221 31.6634 48.4789 31.515 48.3966L17.515 40.6199C17.3589 40.5333 17.2288 40.4065 17.1382 40.2527C17.0476 40.0988 16.9999 39.9235 17 39.7449V24.2549C17.0002 24.0767 17.0481 23.9017 17.1386 23.7482C17.2292 23.5946 17.3591 23.4681 17.515 23.3816L31.515 15.6033C31.6634 15.521 31.8303 15.4778 32 15.4778C32.1697 15.4778 32.3366 15.521 32.485 15.6033L46.485 23.3816C46.6409 23.4681 46.7708 23.5946 46.8614 23.7482C46.9519 23.9017 46.9998 24.0767 47 24.2549Z" stroke="white" stroke-width="3" stroke-linecap="round" stroke-linejoin="round"/>
<path d="M17.8799 24.1565L31.5132 31.7299C31.6618 31.8125 31.829 31.8558 31.999 31.8558C32.1691 31.8558 32.3363 31.8125 32.4849 31.7299L46.1665 24.1299M31.9999 46.9999V31.9999" stroke="white" stroke-width="3" stroke-linecap="round" stroke-linejoin="round"/>
<path d="M75.64 44V20.24H80.128V39.809H90.358V44H75.64ZM99.8625 44.495C98.0695 44.495 96.4965 44.0935 95.1435 43.2905C93.7905 42.4875 92.7345 41.382 91.9755 39.974C91.2275 38.555 90.8535 36.927 90.8535 35.09C90.8535 33.231 91.2385 31.5975 92.0085 30.1895C92.7785 28.7705 93.84 27.665 95.193 26.873C96.546 26.081 98.1025 25.685 99.8625 25.685C101.656 25.685 103.229 26.0865 104.582 26.8895C105.946 27.6925 107.007 28.8035 107.766 30.2225C108.525 31.6305 108.905 33.253 108.905 35.09C108.905 36.938 108.52 38.5715 107.75 39.9905C106.991 41.3985 105.929 42.504 104.565 43.307C103.212 44.099 101.645 44.495 99.8625 44.495ZM99.8625 40.304C101.304 40.304 102.376 39.82 103.08 38.852C103.795 37.873 104.153 36.619 104.153 35.09C104.153 33.506 103.79 32.241 103.064 31.295C102.349 30.349 101.282 29.876 99.8625 29.876C98.8835 29.876 98.0805 30.096 97.4535 30.536C96.8265 30.976 96.359 31.5865 96.051 32.3675C95.754 33.1485 95.6055 34.056 95.6055 35.09C95.6055 36.685 95.963 37.9555 96.678 38.9015C97.404 39.8365 98.4655 40.304 99.8625 40.304ZM118.836 52.415C117.824 52.415 116.861 52.25 115.948 51.92C115.035 51.601 114.216 51.15 113.49 50.567C112.775 49.995 112.192 49.324 111.741 48.554L115.899 46.541C116.185 47.069 116.592 47.4705 117.12 47.7455C117.659 48.0205 118.242 48.158 118.869 48.158C119.54 48.158 120.172 48.0425 120.766 47.8115C121.36 47.5915 121.833 47.256 122.185 46.805C122.548 46.365 122.719 45.815 122.697 45.155V39.974H123.258V26.18H127.185V45.221C127.185 45.661 127.163 46.0735 127.119 46.4585C127.086 46.8545 127.02 47.245 126.921 47.63C126.635 48.719 126.101 49.6155 125.32 50.3195C124.55 51.0235 123.604 51.546 122.482 51.887C121.36 52.239 120.145 52.415 118.836 52.415ZM118.44 44.495C116.801 44.495 115.365 44.0825 114.133 43.2575C112.901 42.4325 111.939 41.3105 111.246 39.8915C110.564 38.4725 110.223 36.872 110.223 35.09C110.223 33.275 110.569 31.6635 111.262 30.2555C111.966 28.8365 112.951 27.72 114.216 26.906C115.481 26.092 116.966 25.685 118.671 25.685C120.365 25.685 121.789 26.0975 122.944 26.9225C124.099 27.7475 124.974 28.8695 125.568 30.2885C126.162 31.7075 126.459 33.308 126.459 35.09C126.459 36.872 126.156 38.4725 125.551 39.8915C124.957 41.3105 124.066 42.4325 122.878 43.2575C121.69 44.0825 120.211 44.495 118.44 44.495ZM119.166 40.502C120.167 40.502 120.964 40.2765 121.558 39.8255C122.163 39.3745 122.598 38.742 122.862 37.928C123.126 37.114 123.258 36.168 123.258 35.09C123.258 34.012 123.126 33.066 122.862 32.252C122.598 31.438 122.174 30.8055 121.591 30.3545C121.019 29.9035 120.266 29.678 119.331 29.678C118.33 29.678 117.505 29.9255 116.856 30.4205C116.218 30.9045 115.745 31.559 115.437 32.384C115.129 33.198 114.975 34.1 114.975 35.09C114.975 36.091 115.123 37.004 115.42 37.829C115.717 38.643 116.174 39.292 116.79 39.776C117.406 40.26 118.198 40.502 119.166 40.502ZM138.505 44.495C136.712 44.495 135.139 44.0935 133.786 43.2905C132.433 42.4875 131.377 41.382 130.618 39.974C129.87 38.555 129.496 36.927 129.496 35.09C129.496 33.231 129.881 31.5975 130.651 30.1895C131.421 28.7705 132.482 27.665 133.835 26.873C135.188 26.081 136.745 25.685 138.505 25.685C140.298 25.685 141.871 26.0865 143.224 26.8895C144.588 27.6925 145.649 28.8035 146.408 30.2225C147.167 31.6305 147.547 33.253 147.547 35.09C147.547 36.938 147.162 38.5715 146.392 39.9905C145.633 41.3985 144.571 42.504 143.207 43.307C141.854 44.099 140.287 44.495 138.505 44.495ZM138.505 40.304C139.946 40.304 141.018 39.82 141.722 38.852C142.437 37.873 142.795 36.619 142.795 35.09C142.795 33.506 142.432 32.241 141.706 31.295C140.991 30.349 139.924 29.876 138.505 29.876C137.526 29.876 136.723 30.096 136.096 30.536C135.469 30.976 135.001 31.5865 134.693 32.3675C134.396 33.1485 134.248 34.056 134.248 35.09C134.248 36.685 134.605 37.9555 135.32 38.9015C136.046 39.8365 137.108 40.304 138.505 40.304ZM158.6 44.495C156.829 44.495 155.35 44.0825 154.162 43.2575C152.974 42.4325 152.077 41.3105 151.472 39.8915C150.878 38.4725 150.581 36.872 150.581 35.09C150.581 33.308 150.878 31.7075 151.472 30.2885C152.066 28.8695 152.941 27.7475 154.096 26.9225C155.251 26.0975 156.675 25.685 158.369 25.685C160.074 25.685 161.559 26.092 162.824 26.906C164.089 27.72 165.068 28.8365 165.761 30.2555C166.465 31.6635 166.817 33.275 166.817 35.09C166.817 36.872 166.471 38.4725 165.778 39.8915C165.096 41.3105 164.139 42.4325 162.907 43.2575C161.675 44.0825 160.239 44.495 158.6 44.495ZM149.822 51.92V26.18H153.782V38.39H154.343V51.92H149.822ZM157.874 40.502C158.842 40.502 159.634 40.26 160.25 39.776C160.866 39.292 161.323 38.643 161.62 37.829C161.917 37.004 162.065 36.091 162.065 35.09C162.065 34.1 161.911 33.198 161.603 32.384C161.295 31.559 160.817 30.9045 160.168 30.4205C159.53 29.9255 158.71 29.678 157.709 29.678C156.774 29.678 156.015 29.9035 155.432 30.3545C154.86 30.8055 154.442 31.438 154.178 32.252C153.914 33.066 153.782 34.012 153.782 35.09C153.782 36.168 153.914 37.114 154.178 37.928C154.442 38.742 154.871 39.3745 155.465 39.8255C156.07 40.2765 156.873 40.502 157.874 40.502ZM169.458 44V19.745H173.946V44H169.458ZM182.523 44.495C181.247 44.495 180.163 44.253 179.272 43.769C178.392 43.274 177.721 42.6195 177.259 41.8055C176.808 40.9805 176.583 40.073 176.583 39.083C176.583 38.258 176.709 37.5045 176.962 36.8225C177.215 36.1405 177.622 35.541 178.183 35.024C178.755 34.496 179.52 34.056 180.477 33.704C181.137 33.462 181.923 33.2475 182.836 33.0605C183.749 32.8735 184.783 32.6975 185.938 32.5325C187.093 32.3565 188.364 32.164 189.75 31.955L188.133 32.846C188.133 31.79 187.88 31.0145 187.374 30.5195C186.868 30.0245 186.021 29.777 184.833 29.777C184.173 29.777 183.485 29.9365 182.77 30.2555C182.055 30.5745 181.555 31.141 181.269 31.955L177.21 30.668C177.661 29.194 178.508 27.995 179.751 27.071C180.994 26.147 182.688 25.685 184.833 25.685C186.406 25.685 187.803 25.927 189.024 26.411C190.245 26.895 191.169 27.731 191.796 28.919C192.148 29.579 192.357 30.239 192.423 30.899C192.489 31.559 192.522 32.296 192.522 33.11V44H188.595V40.337L189.156 41.096C188.287 42.295 187.346 43.164 186.334 43.703C185.333 44.231 184.063 44.495 182.523 44.495ZM183.48 40.964C184.305 40.964 184.998 40.821 185.559 40.535C186.131 40.238 186.582 39.9025 186.912 39.5285C187.253 39.1545 187.484 38.841 187.605 38.588C187.836 38.104 187.968 37.543 188.001 36.905C188.045 36.256 188.067 35.717 188.067 35.288L189.387 35.618C188.056 35.838 186.978 36.025 186.153 36.179C185.328 36.322 184.662 36.454 184.156 36.575C183.65 36.696 183.205 36.828 182.82 36.971C182.38 37.147 182.022 37.3395 181.747 37.5485C181.483 37.7465 181.285 37.9665 181.153 38.2085C181.032 38.4505 180.972 38.72 180.972 39.017C180.972 39.424 181.071 39.776 181.269 40.073C181.478 40.359 181.769 40.579 182.143 40.733C182.517 40.887 182.963 40.964 183.48 40.964ZM203.346 44.495C201.498 44.495 199.914 44.0825 198.594 43.2575C197.274 42.4325 196.262 41.3105 195.558 39.8915C194.854 38.4725 194.502 36.872 194.502 35.09C194.502 33.286 194.865 31.6745 195.591 30.2555C196.328 28.8365 197.362 27.72 198.693 26.906C200.024 26.092 201.597 25.685 203.412 25.685C205.513 25.685 207.273 26.2185 208.692 27.2855C210.122 28.3415 211.035 29.788 211.431 31.625L206.943 32.813C206.679 31.889 206.217 31.1685 205.557 30.6515C204.908 30.1345 204.171 29.876 203.346 29.876C202.4 29.876 201.624 30.107 201.019 30.569C200.414 31.02 199.969 31.6415 199.683 32.4335C199.397 33.2145 199.254 34.1 199.254 35.09C199.254 36.641 199.595 37.9005 200.277 38.8685C200.97 39.8255 201.993 40.304 203.346 40.304C204.358 40.304 205.128 40.073 205.656 39.611C206.184 39.149 206.58 38.489 206.844 37.631L211.431 38.588C210.925 40.48 209.968 41.9375 208.56 42.9605C207.152 43.9835 205.414 44.495 203.346 44.495ZM221.211 44.495C219.385 44.495 217.773 44.1045 216.376 43.3235C214.99 42.5315 213.901 41.448 213.109 40.073C212.328 38.687 211.938 37.103 211.938 35.321C211.938 33.374 212.323 31.68 213.093 30.239C213.863 28.798 214.924 27.6815 216.277 26.8895C217.63 26.0865 219.187 25.685 220.947 25.685C222.817 25.685 224.406 26.125 225.715 27.005C227.024 27.885 227.992 29.1225 228.619 30.7175C229.246 32.3125 229.466 34.188 229.279 36.344H224.841V34.694C224.841 32.879 224.549 31.5755 223.966 30.7835C223.394 29.9805 222.454 29.579 221.145 29.579C219.616 29.579 218.488 30.0465 217.762 30.9815C217.047 31.9055 216.69 33.275 216.69 35.09C216.69 36.751 217.047 38.038 217.762 38.951C218.488 39.853 219.55 40.304 220.947 40.304C221.827 40.304 222.58 40.1115 223.207 39.7265C223.834 39.3415 224.313 38.786 224.643 38.06L229.131 39.347C228.46 40.975 227.398 42.24 225.946 43.142C224.505 44.044 222.927 44.495 221.211 44.495ZM215.304 36.344V33.011H227.118V36.344H215.304ZM231.685 44V26.18H235.645V30.536L235.216 29.975C235.447 29.359 235.755 28.798 236.14 28.292C236.525 27.786 236.998 27.368 237.559 27.038C237.988 26.774 238.455 26.5705 238.961 26.4275C239.467 26.2735 239.99 26.18 240.529 26.147C241.068 26.103 241.607 26.114 242.146 26.18V30.371C241.651 30.217 241.073 30.1675 240.413 30.2225C239.764 30.2665 239.176 30.415 238.648 30.668C238.12 30.91 237.674 31.2345 237.311 31.6415C236.948 32.0375 236.673 32.5105 236.486 33.0605C236.299 33.5995 236.206 34.21 236.206 34.892V44H231.685Z" fill="black"/>
</svg>
